<?xml version="1.0" encoding="UTF-8"?>
<svg id="Layer_1" data-name="Layer 1" xmlns="http://www.w3.org/2000/svg" viewBox="0 0 264.1 105.37">
  <defs>
    <style>
      .cls-1 {
        fill: #fff;
      }

      .cls-2 {
        fill: #e7352b;
      }
    </style>
  </defs>
  <g>
    <path class="cls-2" d="m112.52,21.54c.78-.72,1.68-1.25,2.7-1.61,1.02-.36,2.05-.54,3.07-.54s1.98.13,2.75.4c.77.27,1.4.62,1.89,1.07.49.45.85.97,1.09,1.55.23.58.35,1.19.35,1.83v7.43c0,.51.01.98.03,1.41.02.43.05.84.09,1.23h-2.46c-.06-.74-.09-1.47-.09-2.21h-.06c-.62.94-1.34,1.61-2.18,2-.84.39-1.81.58-2.92.58-.68,0-1.32-.09-1.93-.28-.61-.18-1.15-.46-1.61-.83-.46-.37-.82-.82-1.09-1.37-.27-.54-.4-1.17-.4-1.89,0-.94.21-1.73.63-2.36.42-.63.99-1.15,1.72-1.55.73-.4,1.57-.69,2.55-.86.97-.17,2.01-.26,3.12-.26h2.03v-.61c0-.37-.07-.74-.21-1.11-.14-.37-.36-.7-.64-1-.29-.3-.64-.53-1.08-.71-.43-.17-.94-.26-1.53-.26-.53,0-1,.05-1.4.15-.4.1-.76.23-1.09.38-.33.15-.62.33-.89.54-.27.21-.52.4-.77.58l-1.66-1.72Zm7.8,5.77c-.65,0-1.32.04-2.01.11-.69.07-1.31.21-1.87.41-.56.21-1.02.49-1.38.86-.36.37-.54.84-.54,1.41,0,.84.28,1.44.84,1.81.56.37,1.33.55,2.29.55.76,0,1.4-.13,1.94-.38.53-.26.96-.59,1.29-1,.33-.41.56-.86.71-1.37.14-.5.21-1,.21-1.49v-.92h-1.47Z"/>
    <path class="cls-2" d="m128.39,19.76h2.58v2.27h.06c.06-.2.22-.46.48-.77.26-.31.58-.6.98-.88.4-.28.87-.51,1.41-.71.54-.2,1.14-.29,1.8-.29,1.08,0,1.99.23,2.73.68.74.45,1.34,1.13,1.81,2.03.47-.9,1.13-1.58,2-2.03.86-.45,1.73-.68,2.61-.68,1.12,0,2.04.18,2.76.55.72.37,1.28.85,1.69,1.46.41.6.69,1.29.84,2.06.15.77.23,1.56.23,2.38v8.47h-2.76v-8.11c0-.55-.04-1.08-.11-1.6-.07-.51-.22-.96-.45-1.35-.22-.39-.54-.7-.95-.94-.41-.24-.95-.35-1.63-.35-1.33,0-2.28.41-2.86,1.23-.57.82-.86,1.87-.86,3.16v7.95h-2.76v-7.61c0-.7-.04-1.33-.11-1.9-.07-.57-.21-1.07-.43-1.49-.21-.42-.52-.75-.92-.98-.4-.24-.94-.35-1.61-.35-.49,0-.97.1-1.43.29-.46.2-.87.49-1.21.88-.35.39-.62.89-.83,1.49-.21.61-.31,1.32-.31,2.13v7.55h-2.76v-14.55Z"/>
    <path class="cls-2" d="m162.29,23.42c-.33-.41-.73-.75-1.21-1.03-.48-.28-1.07-.41-1.77-.41-.66,0-1.22.14-1.71.41-.48.28-.72.68-.72,1.21,0,.43.14.78.41,1.04.28.27.6.48.98.65.38.16.78.29,1.21.37.43.08.8.15,1.1.21.59.14,1.15.32,1.67.52s.97.47,1.35.8c.38.33.68.73.89,1.2.21.47.32,1.04.32,1.72,0,.82-.17,1.52-.52,2.1-.35.58-.8,1.06-1.35,1.43-.55.37-1.18.63-1.89.8-.71.16-1.42.25-2.13.25-1.21,0-2.27-.18-3.18-.55-.91-.37-1.72-1.04-2.44-2.03l2.09-1.72c.45.45.95.85,1.5,1.2.55.35,1.23.52,2.03.52.35,0,.7-.04,1.06-.11.36-.07.67-.18.95-.34.28-.15.5-.35.68-.58.17-.24.26-.51.26-.81,0-.41-.13-.75-.38-1.01-.26-.27-.56-.48-.92-.63-.36-.15-.74-.28-1.13-.37-.4-.09-.75-.17-1.06-.23-.59-.14-1.16-.31-1.69-.49-.53-.18-1-.43-1.41-.74-.41-.31-.74-.7-.98-1.17-.25-.47-.37-1.05-.37-1.75,0-.76.16-1.42.48-1.98.32-.56.74-1.03,1.26-1.4.52-.37,1.12-.64,1.78-.83.66-.18,1.34-.28,2.01-.28.98,0,1.92.18,2.82.55.9.37,1.62.98,2.15,1.84l-2.15,1.63Z"/>
    <path class="cls-2" d="m175.98,22.16h-3.96v6.6c0,.41,0,.81.03,1.21.02.4.1.76.23,1.08.13.32.34.57.61.77.28.19.68.29,1.21.29.33,0,.66-.03,1.01-.09.35-.06.66-.17.95-.34v2.52c-.33.18-.75.31-1.28.38-.52.07-.93.11-1.21.11-1.06,0-1.89-.15-2.47-.45-.58-.3-1.01-.68-1.29-1.15-.28-.47-.44-1-.49-1.58s-.08-1.17-.08-1.77v-7.58h-3.19v-2.39h3.19v-4.08h2.76v4.08h3.96v2.39Z"/>
    <path class="cls-2" d="m181.63,28.05c0,.63.14,1.21.42,1.73.28.52.64.97,1.09,1.34.45.37.97.66,1.56.86.59.2,1.21.31,1.84.31.86,0,1.61-.2,2.24-.6.63-.4,1.22-.93,1.75-1.58l2.09,1.6c-1.54,1.98-3.68,2.98-6.45,2.98-1.15,0-2.19-.19-3.12-.58-.93-.39-1.72-.93-2.36-1.61-.64-.69-1.14-1.49-1.49-2.42-.35-.93-.52-1.94-.52-3.03s.19-2.09.57-3.02c.38-.93.9-1.74,1.56-2.43.67-.68,1.46-1.22,2.38-1.61.92-.39,1.92-.58,3.01-.58,1.29,0,2.38.23,3.27.68.89.45,1.62,1.04,2.2,1.77.57.73.99,1.55,1.24,2.46.25.91.38,1.84.38,2.78v.98h-11.67Zm8.72-2.21c-.02-.61-.12-1.18-.29-1.69-.18-.51-.44-.96-.79-1.34-.35-.38-.78-.68-1.3-.89-.52-.21-1.13-.32-1.83-.32s-1.29.13-1.86.38c-.56.26-1.04.59-1.43,1-.39.41-.69.86-.9,1.37-.21.5-.32,1-.32,1.49h8.72Z"/>
    <path class="cls-2" d="m196.61,19.76h2.76v2.24h.06c.18-.39.43-.74.74-1.06.31-.32.65-.59,1.03-.81.38-.23.79-.4,1.25-.54.45-.13.9-.2,1.35-.2s.86.06,1.23.18l-.12,2.98c-.22-.06-.45-.11-.68-.15-.23-.04-.45-.06-.68-.06-1.35,0-2.38.38-3.1,1.14-.72.76-1.08,1.93-1.08,3.53v7.31h-2.76v-14.55Z"/>
    <path class="cls-2" d="m222,34.31h-2.76v-2.09h-.06c-.53.78-1.26,1.38-2.2,1.81-.93.43-1.89.65-2.87.65-1.12,0-2.14-.19-3.05-.58-.91-.39-1.69-.93-2.33-1.63-.64-.7-1.14-1.5-1.49-2.43-.35-.92-.52-1.92-.52-3.01s.17-2.09.52-3.02c.35-.93.85-1.74,1.49-2.43.64-.68,1.42-1.22,2.33-1.61.91-.39,1.93-.58,3.05-.58,1.04,0,2.03.22,2.95.66.92.44,1.63,1.04,2.12,1.8h.06v-10.75h2.76v23.21Zm-7.55-2.21c.74,0,1.4-.13,2-.38.6-.26,1.1-.6,1.51-1.04.41-.44.73-.97.95-1.6.22-.62.34-1.3.34-2.04s-.11-1.42-.34-2.04c-.23-.62-.54-1.16-.95-1.6-.41-.44-.91-.79-1.51-1.04-.59-.26-1.26-.38-2-.38s-1.4.13-1.99.38c-.59.26-1.1.6-1.5,1.04-.41.44-.73.97-.95,1.6-.22.62-.34,1.3-.34,2.04s.11,1.42.34,2.04c.22.62.54,1.16.95,1.6.41.44.91.79,1.5,1.04.59.25,1.26.38,1.99.38Z"/>
    <path class="cls-2" d="m226.24,21.54c.78-.72,1.68-1.25,2.7-1.61,1.02-.36,2.04-.54,3.07-.54s1.98.13,2.75.4c.77.27,1.4.62,1.89,1.07.49.45.85.97,1.09,1.55.24.58.35,1.19.35,1.83v7.43c0,.51,0,.98.03,1.41.02.43.05.84.09,1.23h-2.46c-.06-.74-.09-1.47-.09-2.21h-.06c-.62.94-1.34,1.61-2.18,2-.84.39-1.81.58-2.92.58-.67,0-1.32-.09-1.93-.28-.61-.18-1.15-.46-1.61-.83-.46-.37-.82-.82-1.09-1.37-.27-.54-.4-1.17-.4-1.89,0-.94.21-1.73.63-2.36.42-.63.99-1.15,1.72-1.55.73-.4,1.58-.69,2.55-.86.97-.17,2.01-.26,3.12-.26h2.03v-.61c0-.37-.07-.74-.21-1.11-.14-.37-.36-.7-.64-1-.29-.3-.64-.53-1.07-.71-.43-.17-.94-.26-1.53-.26-.53,0-1,.05-1.4.15-.4.1-.76.23-1.09.38-.33.15-.62.33-.89.54-.27.21-.52.4-.77.58l-1.66-1.72Zm7.8,5.77c-.66,0-1.33.04-2.01.11-.69.07-1.31.21-1.87.41-.56.21-1.02.49-1.38.86-.36.37-.54.84-.54,1.41,0,.84.28,1.44.85,1.81.56.37,1.32.55,2.29.55.76,0,1.4-.13,1.94-.38.53-.26.96-.59,1.29-1,.33-.41.56-.86.71-1.37.14-.5.21-1,.21-1.49v-.92h-1.47Z"/>
    <path class="cls-2" d="m242.11,19.76h2.58v2.27h.06c.06-.2.22-.46.48-.77.25-.31.58-.6.98-.88.4-.28.87-.51,1.41-.71.54-.2,1.14-.29,1.8-.29,1.08,0,1.99.23,2.73.68.74.45,1.34,1.13,1.81,2.03.47-.9,1.14-1.58,2-2.03.86-.45,1.73-.68,2.61-.68,1.13,0,2.05.18,2.76.55.72.37,1.28.85,1.69,1.46.41.6.69,1.29.84,2.06.15.77.23,1.56.23,2.38v8.47h-2.76v-8.11c0-.55-.04-1.08-.11-1.6-.07-.51-.22-.96-.45-1.35-.22-.39-.54-.7-.95-.94-.41-.24-.95-.35-1.63-.35-1.33,0-2.28.41-2.86,1.23-.57.82-.86,1.87-.86,3.16v7.95h-2.76v-7.61c0-.7-.04-1.33-.11-1.9-.07-.57-.21-1.07-.43-1.49-.21-.42-.52-.75-.92-.98-.4-.24-.94-.35-1.61-.35-.49,0-.97.1-1.43.29-.46.2-.87.49-1.21.88-.35.39-.62.89-.83,1.49-.2.61-.31,1.32-.31,2.13v7.55h-2.76v-14.55Z"/>
    <path class="cls-2" d="m112.52,47.19c.78-.72,1.68-1.25,2.7-1.61,1.02-.36,2.05-.54,3.07-.54s1.98.13,2.75.4c.77.27,1.4.62,1.89,1.08.49.45.85.97,1.09,1.55.23.58.35,1.19.35,1.83v7.43c0,.51.01.98.03,1.41.02.43.05.84.09,1.23h-2.46c-.06-.74-.09-1.47-.09-2.21h-.06c-.62.94-1.34,1.61-2.18,2-.84.39-1.81.58-2.92.58-.68,0-1.32-.09-1.93-.28-.61-.18-1.15-.46-1.61-.83-.46-.37-.82-.82-1.09-1.37-.27-.54-.4-1.17-.4-1.89,0-.94.21-1.73.63-2.36.42-.63.99-1.15,1.72-1.55.73-.4,1.57-.69,2.55-.86.97-.17,2.01-.26,3.12-.26h2.03v-.61c0-.37-.07-.74-.21-1.11-.14-.37-.36-.7-.64-1-.29-.3-.64-.53-1.08-.71-.43-.17-.94-.26-1.53-.26-.53,0-1,.05-1.4.15-.4.1-.76.23-1.09.38-.33.15-.62.33-.89.54-.27.2-.52.4-.77.58l-1.66-1.72Zm7.8,5.77c-.65,0-1.32.04-2.01.11-.69.07-1.31.21-1.87.41-.56.2-1.02.49-1.38.86-.36.37-.54.84-.54,1.41,0,.84.28,1.44.84,1.81.56.37,1.33.55,2.29.55.76,0,1.4-.13,1.94-.38.53-.26.96-.59,1.29-1,.33-.41.56-.86.71-1.37.14-.5.21-1,.21-1.49v-.92h-1.47Z"/>
    <path class="cls-2" d="m128.39,45.41h2.76v2.24h.06c.18-.39.43-.74.74-1.06.31-.32.65-.59,1.03-.81.38-.23.79-.4,1.24-.54.45-.13.9-.2,1.35-.2s.86.06,1.23.19l-.12,2.98c-.23-.06-.45-.11-.68-.15-.23-.04-.45-.06-.68-.06-1.35,0-2.39.38-3.1,1.14-.72.76-1.08,1.93-1.08,3.53v7.31h-2.76v-14.55Z"/>
    <path class="cls-2" d="m147.55,47.8h-3.96v6.6c0,.41,0,.81.03,1.21.02.4.1.76.23,1.08.13.32.34.57.61.77.28.19.68.29,1.21.29.33,0,.66-.03,1.01-.09.35-.06.66-.17.95-.34v2.52c-.33.18-.75.31-1.27.38s-.93.11-1.21.11c-1.06,0-1.89-.15-2.47-.44-.58-.3-1.01-.68-1.29-1.15-.28-.47-.44-1-.49-1.58s-.08-1.17-.08-1.76v-7.58h-3.19v-2.39h3.19v-4.08h2.76v4.08h3.96v2.39Z"/>
    <path class="cls-2" d="m122.87,74.93c-.51-.53-1.05-.94-1.61-1.21-.56-.28-1.23-.41-2.01-.41s-1.42.14-1.98.41c-.56.28-1.03.65-1.41,1.13-.38.48-.67,1.03-.86,1.66-.19.62-.29,1.27-.29,1.95s.11,1.32.34,1.92c.22.6.54,1.13.95,1.58.41.45.9.8,1.48,1.06.57.26,1.22.38,1.93.38.78,0,1.44-.14,2-.41.55-.28,1.06-.68,1.54-1.21l1.96,1.96c-.72.8-1.55,1.37-2.5,1.72-.95.35-1.96.52-3.02.52-1.13,0-2.16-.18-3.09-.55-.93-.37-1.73-.89-2.41-1.55-.67-.67-1.2-1.46-1.57-2.39-.37-.93-.55-1.96-.55-3.09s.18-2.16.55-3.1c.37-.94.89-1.75,1.55-2.43.66-.68,1.46-1.2,2.39-1.58.93-.38,1.97-.57,3.12-.57,1.06,0,2.08.19,3.05.57.97.38,1.82.96,2.53,1.73l-2.09,1.9Z"/>
    <path class="cls-2" d="m129.35,79.35c0,.63.14,1.21.41,1.74.28.52.64.97,1.09,1.34.45.37.97.66,1.56.86.6.21,1.21.31,1.84.31.86,0,1.61-.2,2.24-.6.63-.4,1.22-.93,1.75-1.58l2.09,1.6c-1.54,1.99-3.68,2.98-6.45,2.98-1.15,0-2.18-.19-3.12-.58-.93-.39-1.72-.93-2.36-1.61-.65-.69-1.14-1.49-1.49-2.43-.35-.93-.52-1.94-.52-3.02s.19-2.09.57-3.02c.38-.93.9-1.74,1.56-2.43.67-.69,1.46-1.22,2.38-1.61.92-.39,1.92-.58,3.01-.58,1.29,0,2.38.23,3.27.67.89.45,1.62,1.04,2.2,1.77.57.73.99,1.55,1.24,2.46.26.91.38,1.84.38,2.78v.98h-11.67Zm8.72-2.21c-.02-.61-.12-1.18-.29-1.69-.18-.51-.44-.96-.78-1.34-.35-.38-.78-.68-1.3-.89-.52-.21-1.13-.32-1.83-.32s-1.3.13-1.86.38c-.56.26-1.04.59-1.43,1-.39.41-.69.86-.9,1.37-.21.5-.32,1-.32,1.49h8.72Z"/>
    <path class="cls-2" d="m144.33,71.06h2.76v2.24h.06c.35-.78.95-1.41,1.81-1.89s1.85-.72,2.98-.72c.69,0,1.37.11,2.01.32.64.22,1.21.55,1.69,1,.48.45.87,1.03,1.15,1.73.29.71.43,1.54.43,2.5v9.36h-2.76v-8.6c0-.68-.09-1.25-.28-1.74-.18-.48-.43-.87-.74-1.17-.31-.3-.66-.51-1.06-.64-.4-.13-.81-.2-1.24-.2-.57,0-1.11.09-1.6.28-.49.18-.92.48-1.29.88-.37.4-.65.91-.86,1.52-.21.62-.31,1.34-.31,2.18v7.49h-2.76v-14.55Z"/>
    <path class="cls-2" d="m169.2,73.45h-3.96v6.6c0,.41,0,.81.03,1.21.02.4.1.76.23,1.07.13.32.34.57.61.77.28.19.68.29,1.21.29.33,0,.67-.03,1.01-.09.35-.06.66-.17.95-.34v2.52c-.33.18-.75.31-1.27.38-.52.07-.93.11-1.21.11-1.06,0-1.89-.15-2.47-.44-.58-.3-1.01-.68-1.29-1.15-.28-.47-.44-1-.49-1.58-.05-.58-.08-1.17-.08-1.77v-7.58h-3.2v-2.39h3.2v-4.08h2.76v4.08h3.96v2.39Z"/>
    <path class="cls-2" d="m188.5,71.06h2.76v2.24h.06c.18-.39.43-.74.74-1.06.31-.32.65-.59,1.03-.81.38-.23.79-.4,1.24-.54.45-.13.9-.2,1.35-.2s.86.06,1.23.18l-.12,2.98c-.22-.06-.45-.11-.68-.15-.22-.04-.45-.06-.67-.06-1.35,0-2.38.38-3.1,1.14-.72.76-1.07,1.93-1.07,3.53v7.31h-2.76v-14.55Z"/>
    <path class="cls-2" d="m174.02,79.35c0,.63.14,1.21.41,1.74.28.52.64.97,1.09,1.34.45.37.97.66,1.57.86.59.21,1.21.31,1.84.31.86,0,1.61-.2,2.24-.6.63-.4,1.22-.93,1.75-1.58l2.09,1.6c-1.54,1.99-3.68,2.98-6.45,2.98-1.15,0-2.19-.19-3.12-.58-.93-.39-1.72-.93-2.36-1.61-.64-.69-1.14-1.49-1.49-2.43-.35-.93-.52-1.94-.52-3.02s.19-2.09.57-3.02c.38-.93.9-1.74,1.57-2.43.66-.69,1.46-1.22,2.38-1.61.92-.39,1.92-.58,3.01-.58,1.29,0,2.38.23,3.27.67.89.45,1.62,1.04,2.19,1.77.57.73.99,1.55,1.24,2.46.26.91.38,1.84.38,2.78v.98h-11.67Zm8.72-2.21c-.02-.61-.12-1.18-.29-1.69-.17-.51-.43-.96-.78-1.34-.35-.38-.78-.68-1.3-.89-.52-.21-1.13-.32-1.83-.32s-1.29.13-1.86.38c-.56.26-1.04.59-1.43,1s-.69.86-.91,1.37c-.21.5-.32,1-.32,1.49h8.72Z"/>
  </g>
  <path class="cls-2" d="m74.47,105.37H30.85L0,74.52V30.9L30.6.3v43.99l30.48,30.48h43.99l-30.6,30.6Zm-43.36-.63h43.1l29.34-29.34h-42.73l-30.85-30.85V1.82L.63,31.16v43.1l30.48,30.48Z"/>
  <polygon class="cls-2" points="61.04 30.16 104.68 30.16 74.52 0 30.88 0 .01 30.86 .01 74.5 30.18 104.67 30.18 61.02 61.04 30.16"/>
  <polygon class="cls-1" points="30.57 .3 30.61 44.28 38.75 52.45 38.31 52.89 29.95 44.55 29.95 .95 30.57 .3"/>
</svg>