<?xml version="1.0" encoding="UTF-8"?>
<svg id="Layer_1" data-name="Layer 1" xmlns="http://www.w3.org/2000/svg" viewBox="0 0 75.76 48.08">
  <defs>
    <style>
      .cls-1 {
        fill: #d36259;
      }
    </style>
  </defs>
  <g id="color_fill">
    <path class="cls-1" d="m46.53,30.45c-.45,2.83-2.1,5.48-3.37,8.01-1.24,2.48-3.02,4.67-5.48,6.03-2.01,1.11-4.02,2.35-6.24,2.97-2.31.65-4.79.53-7.18.6-2.53.08-5.02-.2-7.43-1.03-4.29-1.49-9.17-4.25-11.97-7.91-2.55-3.33-4.86-8.67-4.86-12.91v-1.75c.11-4.1,1.46-8.95,3.6-12.78,1.24-2.23,2.18-4.33,4.38-5.88,1.06-.75,2.17-1.54,3.21-2.21.98-.63,1.65-1.05,2.81-1.53,8.17-3.4,18.74-2.85,25.48,3.43.2.18.43.49.65.72l-1.38,1.25c-1.42,1.83-3.57,3.7-4.75,5.38l-1.19-1.06c-1.31-1.62-4.69-2.48-5.88-2.74-2.94-.63-6.6.03-9.36,1.4-4.92,2.44-8.33,7.78-8.58,13.15-.18,4.01,1.78,8.6,4.49,11.65,1.82,2.05,5.85,4.14,8.62,4.28,1.89.09,3.9-.13,5.76-.39,4.62-.64,9.32-5.46,10.18-10.04l-2.24-.06c-1.56-.12-4.07,0-6.05-.06-1.51-.05-4.63.19-5.51-.12,0,0,.15-6.34.05-8.21,0,0,6.41.12,9.34.21,2.11.07,4.21.37,6.33.29,2.35-.08,4.74.08,7.05-.33-.14,3.21.02,6.46-.49,9.65Zm29.23-3.17c-.04-2.36.02-4.02-.07-6.32-2.01-.06-6.69-.05-6.69-.05-.06-2.26.1-4.73-.02-7.14-2,.39-4.56.18-6.59.22-.06,2.03-.14,4.42-.14,6.23l-.17.61c-1.97.06-5,.27-6.94.03.12,2.01,0,4.73.11,6.6,0,0,5.08-.19,6.86-.1.18,2.32.14,4.73.14,7.1l1.12-.12c1.64.27,3.74-.23,5.48.1.08-1.92.08-5.23.19-7.23,0,0,4.87-.08,6.72.06Z"/>
  </g>
</svg>