<?xml version="1.0" encoding="UTF-8"?>
<svg id="_Laag_" data-name="&amp;lt;Laag&amp;gt;" xmlns="http://www.w3.org/2000/svg" viewBox="0 0 84 128">
  <defs>
    <style>
      .cls-1 {
        fill: #fff;
      }

      .cls-2 {
        fill: none;
        stroke: #e7352b;
        stroke-linecap: square;
        stroke-linejoin: round;
      }
    </style>
  </defs>
  <polyline class="cls-1" points="34.9 68.2 .5 68.2 24.28 44.42 58.68 44.42 83.01 68.75 83.01 103.15 59.23 126.93 59.23 92.52 34.9 68.2 59.23 92.52 59.23 126.93 83.01 103.15 83.01 68.75 58.68 44.42 24.28 44.42 .5 68.2 34.9 68.2"/>
  <polygon class="cls-2" points="34.9 68.2 .5 68.2 24.28 44.42 58.68 44.42 83.01 68.75 83.01 103.15 59.23 126.93 59.23 92.52 34.9 68.2 59.23 92.52 59.23 126.93 83.01 103.15 83.01 68.75 58.68 44.42 24.28 44.42 .5 68.2 34.9 68.2"/>
  <polyline class="cls-1" points="34.9 68.2 .5 68.2 24.28 44.42 58.68 44.42 83.01 68.75 83.01 103.15 59.23 126.93 59.23 92.52 34.9 68.2 59.23 92.52 59.23 126.93 83.01 103.15 83.01 68.75 58.68 44.42 24.28 44.42 .5 68.2 34.9 68.2"/>
  <polygon class="cls-2" points="34.9 68.2 .5 68.2 24.28 44.42 58.68 44.42 83.01 68.75 83.01 103.15 59.23 126.93 59.23 92.52 34.9 68.2 59.23 92.52 59.23 126.93 83.01 103.15 83.01 68.75 58.68 44.42 24.28 44.42 .5 68.2 34.9 68.2"/>
  <polyline class="cls-1" points="34.9 103.72 .5 103.72 24.28 127.5 58.68 127.5 83.01 103.17 83.01 68.77 59.23 45 59.23 79.4 34.9 103.72 59.23 79.4 59.23 45 83.01 68.77 83.01 103.17 58.68 127.5 24.28 127.5 .5 103.72 34.9 103.72"/>
  <polygon class="cls-2" points="34.9 103.72 .5 103.72 24.28 127.5 58.68 127.5 83.01 103.17 83.01 68.77 59.23 45 59.23 79.4 34.9 103.72 59.23 79.4 59.23 45 83.01 68.77 83.01 103.17 58.68 127.5 24.28 127.5 .5 103.72 34.9 103.72"/>
  <polyline class="cls-1" points="34.9 103.72 .5 103.72 24.28 127.5 58.68 127.5 83.01 103.17 83.01 68.77 59.23 45 59.23 79.4 34.9 103.72 59.23 79.4 59.23 45 83.01 68.77 83.01 103.17 58.68 127.5 24.28 127.5 .5 103.72 34.9 103.72"/>
  <polygon class="cls-2" points="34.9 103.72 .5 103.72 24.28 127.5 58.68 127.5 83.01 103.17 83.01 68.77 59.23 45 59.23 79.4 34.9 103.72 59.23 79.4 59.23 45 83.01 68.77 83.01 103.17 58.68 127.5 24.28 127.5 .5 103.72 34.9 103.72"/>
  <polyline class="cls-1" points="24.28 103.72 24.28 1.17 .5 24.94 .5 103.72 24.28 103.72 .5 103.72 .5 24.94 24.28 1.17 24.28 103.72"/>
  <polygon class="cls-2" points="24.28 103.72 24.28 1.17 .5 24.94 .5 103.72 24.28 103.72 .5 103.72 .5 24.94 24.28 1.17 24.28 103.72"/>
  <polyline class="cls-1" points="24.28 103.72 24.28 1.17 .5 24.94 .5 103.72 24.28 103.72 .5 103.72 .5 24.94 24.28 1.17 24.28 103.72"/>
  <polygon class="cls-2" points="24.28 103.72 24.28 1.17 .5 24.94 .5 103.72 24.28 103.72 .5 103.72 .5 24.94 24.28 1.17 24.28 103.72"/>
</svg>