<?xml version="1.0" encoding="UTF-8"?>
<svg id="_Laag_" data-name="&amp;lt;Laag&amp;gt;" xmlns="http://www.w3.org/2000/svg" viewBox="0 0 74 129">
  <defs>
    <style>
      .cls-1 {
        fill: #fff;
      }

      .cls-2 {
        fill: none;
        stroke: #e7352b;
        stroke-linecap: square;
        stroke-linejoin: round;
      }
    </style>
  </defs>
  <polyline class="cls-1" points="72.81 45.3 72.81 45.3 24.28 93.4 24.28 127.8 .5 104.03 .5 69.63 24.83 45.3 59.23 45.3 72.81 45.3 59.23 45.3 24.83 45.3 .5 69.63 .5 104.03 24.28 127.8 24.28 93.4 72.81 45.3"/>
  <polygon class="cls-2" points="72.81 45.3 72.81 45.3 24.28 93.4 24.28 127.8 .5 104.03 .5 69.63 24.83 45.3 59.23 45.3 72.81 45.3 59.23 45.3 24.83 45.3 .5 69.63 .5 104.03 24.28 127.8 24.28 93.4 72.81 45.3"/>
  <polyline class="cls-1" points="72.81 45.3 72.81 45.3 24.28 93.4 24.28 127.8 .5 104.03 .5 69.63 24.83 45.3 59.23 45.3 72.81 45.3 59.23 45.3 24.83 45.3 .5 69.63 .5 104.03 24.28 127.8 24.28 93.4 72.81 45.3"/>
  <polygon class="cls-2" points="72.81 45.3 72.81 45.3 24.28 93.4 24.28 127.8 .5 104.03 .5 69.63 24.83 45.3 59.23 45.3 72.81 45.3 59.23 45.3 24.83 45.3 .5 69.63 .5 104.03 24.28 127.8 24.28 93.4 72.81 45.3"/>
  <polyline class="cls-1" points="72.81 128.42 72.81 128.42 24.28 80.32 24.28 45.92 .5 69.69 .5 104.09 24.83 128.42 72.81 128.42 24.83 128.42 .5 104.09 .5 69.69 24.28 45.92 24.28 80.32 72.81 128.42"/>
  <polygon class="cls-2" points="72.81 128.42 72.81 128.42 24.28 80.32 24.28 45.92 .5 69.69 .5 104.09 24.83 128.42 72.81 128.42 24.83 128.42 .5 104.09 .5 69.69 24.28 45.92 24.28 80.32 72.81 128.42"/>
  <polyline class="cls-1" points="72.81 128.42 72.81 128.42 24.28 80.32 24.28 45.92 .5 69.69 .5 104.09 24.83 128.42 72.81 128.42 24.83 128.42 .5 104.09 .5 69.69 24.28 45.92 24.28 80.32 72.81 128.42"/>
  <polygon class="cls-2" points="72.81 128.42 72.81 128.42 24.28 80.32 24.28 45.92 .5 69.69 .5 104.09 24.83 128.42 72.81 128.42 24.83 128.42 .5 104.09 .5 69.69 24.28 45.92 24.28 80.32 72.81 128.42"/>
  <polyline class="cls-1" points="24.28 104.72 24.28 1.35 .5 25.13 .5 128.5 24.28 104.72 .5 128.5 .5 25.13 24.28 1.35 24.28 104.72"/>
  <polygon class="cls-2" points="24.28 104.72 24.28 1.35 .5 25.13 .5 128.5 24.28 104.72 .5 128.5 .5 25.13 24.28 1.35 24.28 104.72"/>
  <polyline class="cls-1" points="24.28 104.72 24.28 1.35 .5 25.13 .5 128.5 24.28 104.72 .5 128.5 .5 25.13 24.28 1.35 24.28 104.72"/>
  <polygon class="cls-2" points="24.28 104.72 24.28 1.35 .5 25.13 .5 128.5 24.28 104.72 .5 128.5 .5 25.13 24.28 1.35 24.28 104.72"/>
</svg>