<?xml version="1.0" encoding="UTF-8"?>
<svg id="_Laag_" data-name="&amp;lt;Laag&amp;gt;" xmlns="http://www.w3.org/2000/svg" viewBox="0 0 73 85">
  <defs>
    <style>
      .cls-1 {
        fill: #fff;
      }

      .cls-2 {
        fill: none;
        stroke: #e7352b;
        stroke-linecap: square;
        stroke-linejoin: round;
      }
    </style>
  </defs>
  <polyline class="cls-1" points="24.28 36.11 24.28 1.71 .5 25.49 .5 59.89 24.83 84.22 48.38 84.22 72.16 60.44 48.6 60.44 24.28 36.11 48.6 60.44 72.16 60.44 48.38 84.22 24.83 84.22 .5 59.89 .5 25.49 24.28 1.71 24.28 36.11"/>
  <path class="cls-2" d="m48.38,1.3h0l23.78,23.78v35.65l-23.78,23.77V1.3v83.2l23.78-23.77V25.08L48.38,1.3Zm0,0h0l23.78,23.78v35.65l-23.78,23.77V1.3v83.2l23.78-23.77V25.08L48.38,1.3Zm-24.1,34.81V1.71L.5,25.49v34.4l24.33,24.33h23.55l23.78-23.78h-23.56l-24.33-24.33,24.33,24.33h23.56l-23.78,23.78h-23.55L.5,59.89V25.49L24.28,1.71v34.4Z"/>
</svg>